<svg xmlns="http://www.w3.org/2000/svg" version="1.1" xmlns:xlink="http://www.w3.org/1999/xlink" xmlns:svgjs="http://svgjs.dev/svgjs" width="2000" height="373" viewBox="0 0 2000 373"><g transform="matrix(1,0,0,1,-1.2121212121212466,0.8602484107428836)"><svg viewBox="0 0 396 74" data-background-color="#ffffff" preserveAspectRatio="xMidYMid meet" height="373" width="2000" xmlns="http://www.w3.org/2000/svg" xmlns:xlink="http://www.w3.org/1999/xlink"><g id="tight-bounds" transform="matrix(1,0,0,1,0.2400000000000091,-0.17066590454416541)"><svg viewBox="0 0 395.52 74.34133180908832" height="74.34133180908832" width="395.52"><g><svg viewBox="0 0 395.52 74.34133180908832" height="74.34133180908832" width="395.52"><g><svg viewBox="0 0 395.52 74.34133180908832" height="74.34133180908832" width="395.52"><g id="textblocktransform"><svg viewBox="0 0 395.52 74.34133180908832" height="74.34133180908832" width="395.52" id="textblock"><g><svg viewBox="0 0 395.52 74.34133180908832" height="74.34133180908832" width="395.52"><g transform="matrix(1,0,0,1,0,0)"><svg width="395.52" viewBox="2.32 -38.01 256.25 48.17" height="74.34133180908832" data-palette-color="#0c0a0f"><path d="M18.8-7.01L18.8-7.01Q18.8-8.84 17.42-9.85 16.04-10.86 12.61-11.6 9.18-12.33 7.17-13.35 5.15-14.38 4.19-15.8 3.22-17.21 3.22-19.17L3.22-19.17Q3.22-22.41 5.97-24.66 8.72-26.9 12.99-26.9L12.99-26.9Q17.48-26.9 20.28-24.58 23.07-22.27 23.07-18.65L23.07-18.65 18.53-18.65Q18.53-20.51 16.96-21.85 15.38-23.19 12.99-23.19L12.99-23.19Q10.52-23.19 9.13-22.12 7.74-21.04 7.74-19.31L7.74-19.31Q7.74-17.68 9.03-16.85 10.33-16.02 13.71-15.26 17.09-14.5 19.19-13.45 21.29-12.4 22.3-10.93 23.32-9.45 23.32-7.32L23.32-7.32Q23.32-3.78 20.48-1.65 17.65 0.49 13.13 0.49L13.13 0.49Q9.96 0.49 7.52-0.63 5.08-1.76 3.7-3.77 2.32-5.79 2.32-8.13L2.32-8.13 6.84-8.13Q6.96-5.86 8.65-4.53 10.35-3.2 13.13-3.2L13.13-3.2Q15.7-3.2 17.25-4.24 18.8-5.27 18.8-7.01ZM51.51-13.33L51.51-12.92Q51.51-6.88 48.75-3.2 45.99 0.49 41.28 0.49L41.28 0.49Q36.47 0.49 33.71-2.56L33.71-2.56 33.71 10.16 29.2 10.16 29.2-26.42 33.32-26.42 33.54-23.49Q36.3-26.9 41.21-26.9L41.21-26.9Q45.97-26.9 48.74-23.32 51.51-19.73 51.51-13.33L51.51-13.33ZM46.99-13.43L46.99-13.43Q46.99-17.9 45.09-20.48 43.19-23.07 39.87-23.07L39.87-23.07Q35.76-23.07 33.71-19.43L33.71-19.43 33.71-6.81Q35.74-3.2 39.91-3.2L39.91-3.2Q43.16-3.2 45.08-5.77 46.99-8.35 46.99-13.43ZM68.21 0.49L68.21 0.49Q62.84 0.49 59.47-3.04 56.1-6.57 56.1-12.48L56.1-12.48 56.1-13.31Q56.1-17.24 57.6-20.32 59.1-23.41 61.8-25.16 64.5-26.9 67.65-26.9L67.65-26.9Q72.8-26.9 75.65-23.51 78.51-20.12 78.51-13.79L78.51-13.79 78.51-11.91 60.62-11.91Q60.71-8.01 62.9-5.6 65.08-3.2 68.45-3.2L68.45-3.2Q70.84-3.2 72.5-4.17 74.16-5.15 75.41-6.76L75.41-6.76 78.17-4.61Q74.85 0.49 68.21 0.49ZM67.65-23.19L67.65-23.19Q64.91-23.19 63.06-21.2 61.2-19.21 60.76-15.63L60.76-15.63 73.99-15.63 73.99-15.97Q73.8-19.41 72.14-21.3 70.48-23.19 67.65-23.19ZM104.78 0L100.04 0Q99.65-0.78 99.41-2.78L99.41-2.78Q96.26 0.49 91.89 0.49L91.89 0.49Q87.98 0.49 85.48-1.72 82.98-3.93 82.98-7.32L82.98-7.32Q82.98-11.45 86.11-13.73 89.25-16.02 94.94-16.02L94.94-16.02 99.33-16.02 99.33-18.09Q99.33-20.46 97.92-21.86 96.5-23.27 93.74-23.27L93.74-23.27Q91.33-23.27 89.69-22.05 88.05-20.83 88.05-19.09L88.05-19.09 83.51-19.09Q83.51-21.07 84.92-22.91 86.32-24.76 88.73-25.83 91.13-26.9 94.01-26.9L94.01-26.9Q98.58-26.9 101.16-24.62 103.75-22.34 103.85-18.33L103.85-18.33 103.85-6.18Q103.85-2.54 104.78-0.39L104.78-0.39 104.78 0ZM92.55-3.44L92.55-3.44Q94.67-3.44 96.57-4.54 98.48-5.64 99.33-7.4L99.33-7.4 99.33-12.82 95.79-12.82Q87.49-12.82 87.49-7.96L87.49-7.96Q87.49-5.83 88.91-4.64 90.32-3.44 92.55-3.44ZM127.5 0L118.3-12.23 115.47-9.28 115.47 0 110.95 0 110.95-37.5 115.47-37.5 115.47-14.82 117.89-17.72 126.11-26.42 131.61-26.42 121.33-15.38 132.8 0 127.5 0ZM143.01 0L138.49 0 138.49-22.92 134.31-22.92 134.31-26.42 138.49-26.42 138.49-29.13Q138.49-33.37 140.76-35.69 143.03-38.01 147.18-38.01L147.18-38.01Q148.74-38.01 150.28-37.6L150.28-37.6 150.04-33.94Q148.89-34.16 147.59-34.16L147.59-34.16Q145.4-34.16 144.2-32.87 143.01-31.59 143.01-29.2L143.01-29.2 143.01-26.42 148.64-26.42 148.64-22.92 143.01-22.92 143.01 0ZM158.53-37.5L158.53 0 154.01 0 154.01-37.5 158.53-37.5ZM182.16 0L182.06-2.61Q179.43 0.49 174.32 0.49L174.32 0.49Q170.1 0.49 167.89-1.97 165.68-4.42 165.66-9.23L165.66-9.23 165.66-26.42 170.17-26.42 170.17-9.35Q170.17-3.34 175.06-3.34L175.06-3.34Q180.23-3.34 181.94-7.2L181.94-7.2 181.94-26.42 186.46-26.42 186.46 0 182.16 0ZM204.28 0.49L204.28 0.49Q198.91 0.49 195.54-3.04 192.17-6.57 192.17-12.48L192.17-12.48 192.17-13.31Q192.17-17.24 193.67-20.32 195.17-23.41 197.87-25.16 200.57-26.9 203.72-26.9L203.72-26.9Q208.87-26.9 211.72-23.51 214.58-20.12 214.58-13.79L214.58-13.79 214.58-11.91 196.68-11.91Q196.78-8.01 198.97-5.6 201.15-3.2 204.52-3.2L204.52-3.2Q206.91-3.2 208.57-4.17 210.23-5.15 211.48-6.76L211.48-6.76 214.24-4.61Q210.92 0.49 204.28 0.49ZM203.72-23.19L203.72-23.19Q200.98-23.19 199.13-21.2 197.27-19.21 196.83-15.63L196.83-15.63 210.06-15.63 210.06-15.97Q209.87-19.41 208.21-21.3 206.55-23.19 203.72-23.19ZM219.8-26.42L224.07-26.42 224.22-23.1Q227.25-26.9 232.13-26.9L232.13-26.9Q240.5-26.9 240.58-17.46L240.58-17.46 240.58 0 236.06 0 236.06-17.48Q236.04-20.34 234.76-21.7 233.47-23.07 230.76-23.07L230.76-23.07Q228.57-23.07 226.91-21.9 225.25-20.73 224.32-18.82L224.32-18.82 224.32 0 219.8 0 219.8-26.42ZM249-32.81L253.52-32.81 253.52-26.42 258.45-26.42 258.45-22.92 253.52-22.92 253.52-6.54Q253.52-4.96 254.17-4.16 254.83-3.37 256.42-3.37L256.42-3.37Q257.2-3.37 258.57-3.66L258.57-3.66 258.57 0Q256.79 0.49 255.1 0.49L255.1 0.49Q252.07 0.49 250.54-1.34 249-3.17 249-6.54L249-6.54 249-22.92 244.19-22.92 244.19-26.42 249-26.42 249-32.81Z" opacity="1" transform="matrix(1,0,0,1,0,0)" fill="#0c0a0f" class="wordmark-text-0" data-fill-palette-color="primary" id="text-0"></path></svg></g></svg></g></svg></g></svg></g></svg></g><defs></defs></svg><rect width="395.52" height="74.34133180908832" fill="none" stroke="none" visibility="hidden"></rect></g></svg></g></svg>